<svg clip-rule="evenodd" fill-rule="evenodd" stroke-linejoin="round" stroke-miterlimit="2"
    viewBox="0 0 64 64" xmlns="http://www.w3.org/2000/svg">
    <path d="m-256-256h1280v800h-1280z" fill="none" />
    <path
        d="m32.266 7.951c13.246 0 24 10.754 24 24s-10.754 24-24 24-24-10.754-24-24 10.754-24 24-24zm-15.616 11.465c-2.759 3.433-4.411 7.792-4.411 12.535 0 11.053 8.974 20.027 20.027 20.027 4.743 0 9.102-1.652 12.534-4.411zm31.048 25.295c2.87-3.466 4.596-7.913 4.596-12.76 0-11.054-8.974-20.028-20.028-20.028-4.847 0-9.294 1.726-12.76 4.596z" />
</svg>