<svg viewBox="0 0 256 256" xmlns="http://www.w3.org/2000/svg"><path d="m219.085 176.94458c-6.05859-10.42871-13.28027-30.16113-13.28027-64.94434v-7.09668c0-43.19043-34.63672-78.585-77.21094-78.90136-.19922-.001-.39648-.002-.59473-.002a77.9001 77.9001 0 0 0 -77.7959 78v8c0 34.78223-7.22558 54.5127-13.28808 64.94141a13.99917 13.99917 0 0 0 12.06832 21.05863h41.0166v2a38 38 0 0 0 76 0v-2h41.0166a13.99756 13.99756 0 0 0 12.0684-21.05566zm-65.085 23.05566a26 26 0 0 1 -52 0v-2h52zm54.71875-14.98633a1.90127 1.90127 0 0 1 -1.70215.98633h-158.0332a1.90308 1.90308 0 0 1 -1.70313-.98633 1.9712 1.9712 0 0 1 .00977-2.042c6.80273-11.70312 14.91308-33.5166 14.91308-70.97168v-8a65.90055 65.90055 0 0 1 65.79883-66c.166 0 .33594.001.502.002 36.00683.26757 65.30078 30.27929 65.30078 66.90136v7.09668c0 37.45508 8.10547 59.26856 14.90527 70.97266a1.97115 1.97115 0 0 1 .00875 2.04098z"/></svg>