<svg height="24" viewBox="0 0 24 24" width="24" xmlns="http://www.w3.org/2000/svg"><g fill="none" fill-rule="evenodd"><path d="m0 0h24v24h-24z" fill-rule="nonzero"/><path d="m4 5c0-1.65685 1.34315-3 3-3h10c1.6569 0 3 1.34315 3 3v16c0 .3844-.2203.7348-.5668.9013s-.7577.1197-1.0579-.1204l-1.8753-1.5003-1.8753 1.5003c-.3979.3183-.9715.2865-1.3318-.0738l-1.2929-1.2929-1.2929 1.2929c-.3603.3603-.9339.3921-1.33179.0738l-1.87531-1.5003-1.8753 1.5003c-.30017.2401-.71142.2869-1.05789.1204-.34646-.1665-.56681-.5169-.56681-.9013zm3-1c-.55228 0-1 .44772-1 1v13.9194l.8753-.7003c.36522-.2921.88418-.2921 1.24939 0l1.80109 1.4409 1.36712-1.3671c.3905-.3905 1.0237-.3905 1.4142 0l1.3671 1.3671 1.8011-1.4409c.3652-.2921.8842-.2921 1.2494 0l.8753.7003v-13.9194c0-.55228-.4477-1-1-1zm1 5c0-.55228.44772-1 1-1h6c.5523 0 1 .44772 1 1s-.4477 1-1 1h-6c-.55228 0-1-.44772-1-1zm1 3c-.55228 0-1 .4477-1 1s.44772 1 1 1h3c.5523 0 1-.4477 1-1s-.4477-1-1-1z" fill="#09244b"/></g></svg>