<svg fill="none" height="24" viewBox="0 0 24 24" width="24" xmlns="http://www.w3.org/2000/svg"><g fill="#292d32"><path d="m15.9707 22.75h-8c-3.42 0-4.75-1.33-4.75-4.75v-8c0-.41.34-.75.75-.75h16c.41 0 .75.34.75.75v8c0 3.42-1.33 4.75-4.75 4.75zm-11.25-12v7.25c0 2.58.67 3.25 3.25 3.25h8c2.58 0 3.25-.67 3.25-3.25v-7.25z"/><path d="m19.5 10.75h-15c-1.75 0-2.75-1-2.75-2.75v-1c0-1.75 1-2.75 2.75-2.75h15c1.7 0 2.75 1.05 2.75 2.75v1c0 1.7-1.05 2.75-2.75 2.75zm-15-5c-.91 0-1.25.34-1.25 1.25v1c0 .91.34 1.25 1.25 1.25h15c.88 0 1.25-.37 1.25-1.25v-1c0-.88-.37-1.25-1.25-1.25z"/><path d="m11.6391 5.74988h-5.51998c-.21 0-.41-.09-.55-.24-.61-.67-.59-1.7.05-2.34l1.42-1.42c.66-.66 1.75-.66 2.41 0l2.71998 2.72c.21.21.28.54.16.82-.11.28-.38.46-.69.46zm-4.96998-1.5h3.17l-1.45-1.44c-.08-.08-.21-.08-.29 0l-1.42 1.42c0 .01-.01.01-.01.02z"/><path d="m17.8701 5.74988h-5.52c-.3 0-.58-.18-.69-.46-.12-.28-.05-.6.16-.82l2.72-2.72c.66-.66 1.75-.66 2.41 0l1.42 1.42c.64.64.67 1.67.05 2.34-.14.15-.34.24-.55.24zm-3.7-1.5h3.17c-.01-.01-.01-.01-.02-.02l-1.42-1.42c-.08-.08-.21-.08-.29 0z"/><path d="m9.93945 16.9c-.28 0-.57-.07-.83-.21-.57-.31-.92-.9-.92-1.54v-5.15c0-.41.34-.75.75-.75h6.04005c.41 0 .75.34.75.75v5.13c0 .65-.35 1.24-.92 1.54-.57.31-1.26.27-1.8-.09l-.89-.6c-.08-.06-.19-.06-.28 0l-.94.62c-.29.2-.63.3-.96005.3zm-.25-6.15v4.39c0 .13.08.19.13.22s.15.06.26005-.01l.94-.62c.59-.39 1.35-.39 1.93 0l.89.6c.11.07.21.04.26.01s.13-.09.13-.22v-4.38h-4.54005z"/></g></svg>