<svg enable-background="new 0 0 345 345" viewBox="0 0 345 345" xmlns="http://www.w3.org/2000/svg"><circle cx="172.5" cy="172.5" fill="#323232" r="172.5"/><path d="m160 80c5.7-5.3 12.4-8 20.1-8 7.8 0 14.5 2.7 20.1 8s8.3 11.7 8.3 19.3c0 3.7-.8 9.3-2.3 16.6-1.6 7.4-3.3 14.9-5.1 22.6-2.1 8.4-4.4 18.8-7 31.2s-5.4 27.9-8.3 46.6h-11.3c-2.9-18.5-5.7-34-8.3-46.5s-5-23-7-31.4c-2.1-8.9-3.9-16.6-5.3-23.2s-2.1-11.9-2.1-15.9c-.3-7.6 2.6-14 8.2-19.3zm.2 161.8c5.6-5.4 12.2-8.1 19.7-8.1 7.6 0 14.2 2.7 19.8 8.1s8.4 11.8 8.4 19.3c0 7.4-2.8 13.8-8.4 19.1s-12.2 8-19.8 8c-7.5 0-14.1-2.7-19.7-8s-8.4-11.7-8.4-19.1 2.8-13.8 8.4-19.3z" fill="#0d0d0d"/><path d="m152.5 72.4c5.7-5.3 12.4-8 20.1-8 7.8 0 14.5 2.7 20.1 8s8.3 11.7 8.3 19.3c0 3.7-.8 9.3-2.3 16.6-1.6 7.4-3.3 14.9-5.1 22.6-2.1 8.4-4.4 18.8-7 31.2s-5.4 27.9-8.3 46.6h-11.3c-2.9-18.5-5.7-34-8.3-46.5s-5-23-7-31.4c-2.1-8.9-3.9-16.6-5.3-23.2s-2.1-11.9-2.1-15.9c-.3-7.6 2.5-14 8.2-19.3zm.2 161.8c5.6-5.4 12.2-8.1 19.7-8.1 7.6 0 14.2 2.7 19.8 8.1s8.4 11.8 8.4 19.3c0 7.4-2.8 13.8-8.4 19.1s-12.2 8-19.8 8c-7.5 0-14.1-2.7-19.7-8s-8.4-11.7-8.4-19.1 2.8-13.8 8.4-19.3z" fill="#fff"/></svg>